HIERARCHY
ROOT pelvis
{
  OFFSET 0 100 0
  CHANNELS 6 Xposition Yposition Zposition Zrotation Xrotation Yrotation
  JOINT pelvis_right_femur
  {
    OFFSET -10.78128 -3.44521 -0.5502486
    CHANNELS 3 Zrotation Xrotation Yrotation
    JOINT right_femur_tibia
    {
      OFFSET -0.8047443 -44.0398 -0.1307829
      CHANNELS 3 Zrotation Xrotation Yrotation
      JOINT right_tibia_foot
      {
        OFFSET 3.006224 -47.83518 -5
        CHANNELS 3 Zrotation Xrotation Yrotation
        End Site
        {
          OFFSET 0 -5 15
        }
      }
    }
  }
  JOINT pelvis_left_femur
  {
    OFFSET 10.78128 -3.44521 -0.5502486
    CHANNELS 3 Zrotation Xrotation Yrotation
    JOINT left_femur_tibia
    {
      OFFSET 0.8047443 -44.0398 -0.1307829
      CHANNELS 3 Zrotation Xrotation Yrotation
      JOINT left_tibia_foot
      {
        OFFSET -4.370144 -48.10324 -4.275266
        CHANNELS 3 Zrotation Xrotation Yrotation
        End Site
        {
          OFFSET 0 -5 15
        }
      }
    }
  }
  JOINT pelvis_spine1
  {
    OFFSET 0 6.468898 -3.129235
    CHANNELS 3 Zrotation Xrotation Yrotation
    JOINT spine1
    {
      OFFSET 0 23.15396 4.99043
      CHANNELS 3 Zrotation Xrotation Yrotation
      JOINT spine2
      {
        OFFSET 0 20.79997 -5.064912
        CHANNELS 3 Zrotation Xrotation Yrotation
        JOINT neck
        {
          OFFSET 0 14.38658 9.616178
          CHANNELS 3 Zrotation Xrotation Yrotation
          End Site
          {
            OFFSET 0 20 0
          }
        }
      }
      JOINT right_manubrium
      {
        OFFSET -5.722621 16.35077 3.967754
        CHANNELS 3 Zrotation Xrotation Yrotation
        JOINT right_clavicle
        {
          OFFSET -13.16364 1.694482 -4.693211
          CHANNELS 3 Zrotation Xrotation Yrotation
          JOINT right_humerus
          {
            OFFSET -28.5034 -0.3100689 -2.792744
            CHANNELS 3 Zrotation Xrotation Yrotation
            JOINT right_radius
            {
              OFFSET -25.15693 0.02248979 -1.271978
              CHANNELS 3 Zrotation Xrotation Yrotation
              End Site
              {
                OFFSET -15 0 0
              }
            }
          }
        }
      }
      JOINT left_manubrium
      {
        OFFSET 5.722621 16.35077 3.967754
        CHANNELS 3 Zrotation Xrotation Yrotation
        JOINT left_clavicle
        {
          OFFSET 13.16364 1.694482 -4.693211
          CHANNELS 3 Zrotation Xrotation Yrotation
          JOINT left_humerus
          {
            OFFSET 29.39168 -1.063119 -2.237045
            CHANNELS 3 Zrotation Xrotation Yrotation
            JOINT left_radius
            {
              OFFSET 24.59957 -0.9528479 0.9047498
              CHANNELS 3 Zrotation Xrotation Yrotation
              End Site
              {
                OFFSET 15 -0 -0
              }
            }
          }
        }
      }
    }
  }
}
MOTION
Frames: 21
Frame Time: 0.0416666666667
-160.4194 101.0391 3065.46 -1.21962 -6.658515 -4.464952 5.958359 -15.09656 5.432125 -0 20.16806 -0 -2.78262 -4.817981 -8.470412 -2.597211 13.37669 -7.764841 -0 48.5913 -0 -8.854247 -8.863424 13.84883 -0.6282957 -0.8030031 4.931483 -1.373964 13.9416 -5.710859 0.2390274 22.10534 6.334665 7.219855 -17.06354 2.976438 1.640449 -20.27038 11.18023 89.28756 28.04212 -17.11132 -0 0 15.26693 -23.32031 8.613478 7.171003 7.74313 -26.29823 -9.639987 -88.45083 8.377542 16.60534 0 0 -15.10659 17.6606 12.50417 -10.52984
-161.4056 102.3671 3071.831 -1.382175 -7.697673 -5.343372 6.136153 -9.662208 5.398787 -0 21.02708 -0 -4.271997 -7.170827 -7.518065 -2.518461 7.274635 -7.988209 -0 55.90884 -0 -8.525309 -7.26572 15.05772 -0.311024 -0.9091964 5.400413 -1.355791 14.24151 -5.621687 0.141878 21.94525 6.234652 7.183221 -17.1217 2.793179 1.385356 -20.91209 11.21511 89.17212 27.35048 -16.87668 -0 0 16.20613 -23.26321 8.631668 7.096717 7.284894 -26.38043 -9.887414 -89.4793 8.288681 18.7664 0 0 -13.24556 17.30407 12.29042 -9.644735
-162.2374 103.7009 3077.754 -1.025439 -8.312254 -6.181322 5.53646 -4.10958 4.880756 -0 19.54579 -0 -4.67186 -9.133486 -6.264824 -2.594944 0.07536662 -7.80417 -0 59.45821 -0 -8.42792 -6.986065 15.71227 -0.05564886 -1.017868 5.911172 -1.36137 14.45312 -5.38249 0.09701686 21.83025 6.123606 7.086346 -17.0215 2.694068 1.193406 -21.60193 11.28198 88.79728 26.74533 -16.1843 -0 0 17.34779 -23.2264 8.799626 7.220548 6.756886 -26.22754 -10.01366 -90.69365 8.25674 21.26614 0 0 -10.8715 16.69373 12.22654 -8.452657
-162.9433 104.7478 3083.447 -0.4789646 -8.300755 -6.940936 4.738582 0.9239964 4.71259 -0 16.62542 -0 -3.4773 -10.26276 -4.93196 -2.292806 -7.237034 -7.04322 -0 58.72286 -0 -8.638975 -7.086472 16.25339 0.11775 -1.178125 6.345414 -1.360254 14.56039 -5.027064 0.1299675 21.78755 6.002689 6.868888 -16.78248 2.749916 1.114869 -22.21757 11.41685 88.15279 26.05817 -15.09749 -0 0 18.46818 -23.33701 9.260245 7.699271 6.25096 -25.83221 -9.938033 -91.98349 8.350164 23.77649 0 0 -8.246207 15.85393 12.4662 -7.041669
-163.5768 105.2626 3089.047 -0.1394854 -8.03404 -7.708382 4.253277 5.228692 4.90817 -0 13.56189 -0 -1.834125 -11.04057 -3.817941 -1.370176 -13.70093 -5.834045 -0 54.08155 -0 -8.613054 -7.076775 17.22546 0.2394977 -1.45119 6.680375 -1.299855 14.66207 -4.671796 0.2188648 21.75225 5.843803 6.503302 -16.50241 2.924425 1.130287 -22.79989 11.64882 87.36383 25.06959 -13.86883 -0 0 19.54005 -23.62051 10.07257 8.504137 5.81016 -25.35338 -9.704871 -93.25789 8.525825 26.1469 0 0 -5.753029 14.82335 12.93923 -5.505368
-164.161 105.117 3094.587 -0.163979 -7.72409 -8.515534 4.206379 8.884182 4.863488 -0 11.3012 -0 -1.096076 -12.24422 -2.921432 -0.02424031 -18.93922 -4.590622 -0 46.17339 -0 -8.034693 -7.047588 18.44711 0.3159401 -1.858736 6.975512 -1.142574 14.83279 -4.414076 0.3104653 21.62949 5.631832 6.00699 -16.25883 3.132063 1.222781 -23.51093 11.98833 86.53404 23.79215 -12.64762 -0 0 20.75214 -23.96748 11.16626 9.507281 5.412211 -24.92833 -9.385865 -94.46258 8.662011 28.44988 0 0 -3.639275 13.60839 13.43393 -3.879282
-164.681 104.3795 3100.124 -0.4255481 -7.069015 -9.317176 4.339131 11.95075 4.363218 -0 10.23834 -0 -1.330586 -14.09183 -2.020357 1.343072 -23.11781 -3.625919 -0 36.34826 -0 -7.061858 -7.031708 19.33743 0.268246 -2.330977 7.261295 -0.8993024 14.96564 -4.282914 0.3352288 21.39343 5.43582 5.477035 -16.07997 3.31281 1.439101 -24.40914 12.38916 85.65987 22.69402 -11.39221 -0 0 22.22496 -24.17058 12.2278 10.53304 5.051239 -24.53742 -8.963933 -95.47231 8.638294 30.64515 0 0 -1.986435 12.31147 13.73304 -2.314534
-165.1199 103.2892 3105.818 -0.6862797 -5.85802 -10.0533 4.283516 14.3822 3.773196 -0 10.36744 -0 -1.580899 -15.97655 -1.039096 2.370553 -26.25051 -2.929498 -0 26.91634 -0 -6.063287 -6.913384 19.60343 -0.02360667 -2.719049 7.473816 -0.6531716 14.77011 -4.207643 0.2615622 21.16709 5.407044 5.081061 -15.9716 3.495266 1.812199 -25.25206 12.71211 84.66547 22.4884 -9.978067 -0 0 23.71244 -24.06678 12.72476 11.39637 4.791781 -23.99283 -8.316113 -96.12858 8.497556 32.3831 0 0 -0.6326768 11.20696 13.79784 -1.143192
-165.4912 102.0978 3111.857 -0.7755561 -4.553192 -10.71278 3.83253 16.21886 3.471477 -0 11.62014 -0 -1.222967 -16.91767 -0.2019287 2.731005 -28.00196 -2.589342 -0 20.16187 -0 -5.351952 -6.77212 19.53285 -0.5530283 -2.927601 7.547363 -0.51165 14.12785 -4.097179 0.1506299 21.1052 5.606664 4.929148 -15.95596 3.746625 2.231678 -25.70529 12.80453 83.61733 23.41298 -8.504364 -0 0 24.7649 -23.68443 12.38487 11.9442 4.702983 -23.20997 -7.426434 -96.38979 8.43821 33.27468 -0 0 0.586257 10.57412 13.78161 -0.6391921
-165.8293 100.9687 3118.312 -0.636024 -3.928886 -11.31216 2.972579 17.68193 3.529204 -0 14.2644 -0 -0.5742679 -16.20583 0.1451917 2.169975 -28.21304 -3.002785 -0 17.08132 -0 -4.997211 -6.850494 19.64653 -1.168006 -2.96891 7.520213 -0.5243346 13.25165 -3.92424 0.08829007 21.22367 5.929674 4.993245 -16.02648 4.06363 2.55574 -25.72258 12.63801 82.70922 25.09766 -7.217893 -0 0 25.23384 -23.16802 11.45512 12.12406 4.757976 -22.32519 -6.4831 -96.36267 8.561155 33.33867 -0 0 1.653116 10.45813 13.79827 -0.7550005
-166.1517 100.06 3125.138 -0.2763883 -4.170074 -11.79713 1.799836 18.67079 3.888765 -0 18.82076 -0 -0.03526722 -13.58041 -0.0773474 0.784512 -27.07526 -4.17401 -0 16.98456 -0 -4.68332 -7.182946 19.98018 -1.746126 -2.897672 7.469079 -0.6659843 12.37936 -3.710945 0.09836428 21.44448 6.259659 5.186246 -16.14508 4.397339 2.757218 -25.48226 12.29531 82.04256 27.11336 -6.224321 -0 0 25.28794 -22.60814 10.2994 11.99786 4.877849 -21.4866 -5.656988 -96.18047 8.815948 32.89243 -0 0 2.511182 10.71826 13.84189 -1.252567
-166.4441 99.56505 3132.227 0.235092 -4.870096 -12.03475 0.5526786 18.66391 4.433099 -0 25.48382 -0 0.4875209 -9.323513 -0.7099988 -0.98693 -24.85877 -5.531797 -0 18.46282 -0 -4.090146 -7.62276 20.10669 -2.243829 -2.749972 7.442322 -0.8971787 11.62274 -3.484185 0.1640693 21.70051 6.547595 5.453919 -16.28264 4.705865 2.865067 -25.15096 11.85791 81.63668 29.24608 -5.52251 -0 0 25.11609 -22.01926 9.107713 11.63537 5.005189 -20.76645 -5.024913 -95.9179 9.12071 32.20323 -0 0 3.128642 11.22838 13.8634 -1.954563
-166.6816 99.61228 3139.403 0.7347902 -5.721987 -11.90416 -0.4135574 17.23143 4.942871 -0 33.80754 -0 1.143154 -4.439435 -1.677803 -2.705163 -21.70495 -6.622354 -0 20.30827 -0 -3.30339 -8.161734 19.82282 -2.646098 -2.534882 7.460542 -1.200638 11.02742 -3.25181 0.2675451 21.95697 6.778911 5.776133 -16.42244 4.96128 2.900078 -24.83554 11.37352 81.49607 31.41121 -5.076536 -0 0 24.84168 -21.41863 7.95462 11.09611 5.107307 -20.18956 -4.629899 -95.60323 9.414445 31.41609 -0 0 3.489343 11.91806 13.81337 -2.775386
-166.8524 100.2154 3146.441 1.023787 -6.605844 -11.36414 -0.8311134 14.14295 5.180635 -0 42.71166 -0 1.811209 -0.2813195 -2.922214 -4.084005 -17.65451 -7.341471 -0 21.60449 -0 -2.567937 -8.915333 19.28245 -2.940652 -2.251749 7.515234 -1.569298 10.61453 -3.004583 0.3997348 22.20047 6.948078 6.130073 -16.55156 5.155615 2.880731 -24.59344 10.88365 81.58845 33.53272 -4.800498 -0 0 24.54326 -20.88045 6.915169 10.48502 5.166208 -19.74209 -4.485269 -95.24376 9.666316 30.5907 -0 0 3.598286 12.71532 13.66495 -3.656856
-166.9702 101.2574 3153.137 0.9902833 -7.387719 -10.48157 -0.6733529 9.336293 5.022865 -0 50.37409 -0 2.201229 2.119002 -4.257299 -4.964686 -12.83622 -7.734919 -0 21.77442 -0 -2.020464 -9.950976 18.69205 -3.107916 -1.883898 7.556485 -2.004097 10.38645 -2.708749 0.5685088 22.44699 7.051112 6.47797 -16.63317 5.306179 2.841692 -24.39029 10.43658 81.81183 35.50848 -4.537073 -0 0 24.21794 -20.56065 6.120336 9.971505 5.181777 -19.36073 -4.566808 -94.82864 9.884197 29.6832 -0 0 3.503625 13.52161 13.44643 -4.540447
-167.0684 102.4709 3159.388 0.6889564 -7.926114 -9.405569 -0.174084 3.056783 4.533606 -0 54.59441 -0 2.118709 2.512958 -5.475403 -5.334531 -7.522723 -7.894835 -0 20.69472 -0 -1.69161 -11.2546 18.09775 -3.118985 -1.391524 7.495567 -2.497563 10.33321 -2.333356 0.7862833 22.7343 7.090147 6.785847 -16.5798 5.426711 2.8394 -24.08173 10.09515 82.0385 37.19108 -4.148737 -0 0 23.74584 -20.63426 5.736858 9.718011 5.177986 -18.98435 -4.842318 -94.32004 10.08295 28.54762 -0 0 3.237568 14.22728 13.24807 -5.368784
-167.1852 103.494 3165.235 0.3242634 -8.129687 -8.297422 0.3063733 -4.003249 3.874105 -0 53.82849 -0 1.663094 1.408293 -6.477925 -5.345177 -2.096484 -7.935951 -0 18.69529 -0 -1.616454 -12.78841 17.3837 -2.965988 -0.7620698 7.240719 -2.980962 10.42915 -1.942186 1.031669 23.07221 7.087348 7.047379 -16.31403 5.490151 2.917312 -23.50035 9.923203 82.26102 38.37341 -3.763408 -0 0 22.94474 -21.11431 5.841591 9.725523 5.217911 -18.67744 -5.289287 -93.64964 10.24753 26.99824 -0 0 2.639033 14.76533 13.17572 -6.12292
-167.3555 104.0055 3170.836 0.1272452 -7.98498 -7.272453 0.4957181 -10.85576 3.152817 -0 48.1162 -0 1.111551 -0.3830066 -7.256615 -5.241132 3.031661 -7.955563 -0 16.41561 -0 -1.84365 -14.52132 16.46773 -2.692435 -0.08547944 6.75301 -3.313438 10.64171 -1.73178 1.238155 23.39999 7.073882 7.271947 -15.89751 5.442581 3.048032 -22.59592 9.939219 82.68996 38.83711 -3.896829 -0 0 21.68809 -21.77579 6.334743 9.773809 5.405378 -18.68002 -5.879266 -92.73059 10.34308 24.88713 -0 0 1.262342 15.18429 13.26707 -6.883976
-167.6119 103.851 3176.392 0.2182765 -7.549558 -6.381678 0.342565 -16.6495 2.405849 -0 39.03574 -0 0.6754571 -2.135984 -7.828424 -5.219945 7.559291 -7.96732 -0 14.56785 -0 -2.353202 -16.36652 15.41814 -2.384592 0.4449585 6.093045 -3.362296 10.95934 -1.91477 1.329775 23.60093 7.054393 7.446733 -15.54581 5.247341 3.137303 -21.5105 10.10133 83.57763 38.44825 -5.113474 -0 0 20.02622 -22.33468 7.006232 9.600324 5.826633 -19.2609 -6.556509 -91.50898 10.3138 22.22092 0 0 -1.372703 15.62327 13.42971 -7.796469
-167.9873 103.0864 3182.106 0.5532544 -6.933486 -5.620143 0.02010323 -20.96095 1.693474 -0 28.86178 -0 0.400386 -3.320405 -8.226714 -5.328227 11.39755 -7.901018 -0 13.7696 -0 -3.067816 -18.09883 14.36117 -2.125927 0.6490956 5.417442 -3.110724 11.38687 -2.537672 1.273279 23.57524 6.99928 7.541169 -15.45387 4.904833 3.099285 -20.52016 10.34035 84.90524 37.23909 -7.455064 -0 0 18.24243 -22.67265 7.640163 9.136763 6.462248 -20.46994 -7.242511 -90.07375 10.08105 19.30313 0 0 -5.254788 16.15621 13.49161 -8.893134
-168.5181 101.9485 3188.151 0.9522858 -6.26832 -4.951727 -0.1464342 -23.72823 1.176391 -0 19.84148 -0 0.2273345 -3.648875 -8.515699 -5.452283 14.61729 -7.69436 -0 14.52936 -0 -3.962623 -19.33445 13.36122 -1.937383 0.5065336 4.882881 -2.676372 11.8968 -3.424279 1.102878 23.33062 6.887622 7.546652 -15.63823 4.465894 2.924451 -19.84378 10.5907 86.35027 35.45018 -10.32504 -0 0 16.69479 -22.85556 8.100926 8.534656 7.170435 -22.03921 -7.860741 -88.6997 9.646286 16.67811 0 0 -9.613138 16.71378 13.37164 -9.997726
